<svg width="32" height="33" viewBox="0 0 32 33" fill="none" xmlns="http://www.w3.org/2000/svg">
<path d="M16.3667 25.8333C16.6333 25.8111 16.8613 25.7058 17.0507 25.5173C17.2391 25.328 17.3333 25.1 17.3333 24.8333C17.3333 24.5222 17.2333 24.2724 17.0333 24.084C16.8333 23.8947 16.5778 23.8111 16.2667 23.8333C15.3556 23.9 14.3889 23.6502 13.3667 23.084C12.3444 22.5169 11.7 21.4889 11.4333 20C11.3889 19.7555 11.272 19.5555 11.0827 19.4C10.8942 19.2444 10.6778 19.1667 10.4333 19.1667C10.1222 19.1667 9.86666 19.2831 9.66666 19.516C9.46666 19.7498 9.39999 20.0222 9.46666 20.3333C9.84444 22.3555 10.7333 23.8 12.1333 24.6667C13.5333 25.5333 14.9444 25.9222 16.3667 25.8333ZM16 29.8333C12.9556 29.8333 10.4169 28.7889 8.384 26.7C6.35022 24.6111 5.33333 22.0111 5.33333 18.9C5.33333 16.6778 6.21688 14.2613 7.98399 11.6507C9.75022 9.0391 12.4222 6.2111 16 3.16666C19.5778 6.2111 22.2502 9.0391 24.0173 11.6507C25.7836 14.2613 26.6667 16.6778 26.6667 18.9C26.6667 22.0111 25.6498 24.6111 23.616 26.7C21.5831 28.7889 19.0444 29.8333 16 29.8333Z" fill="#212121" fill-opacity="0.6"/>
</svg>
