<svg width="32" height="33" viewBox="0 0 32 33" fill="none" xmlns="http://www.w3.org/2000/svg">
<path d="M6.66667 11.1667H18C18.6192 11.1785 19.2295 11.0176 19.7624 10.702C20.2953 10.3864 20.7298 9.9285 21.017 9.37977C21.3042 8.83105 21.4329 8.21315 21.3886 7.59538C21.3442 6.97761 21.1287 6.38441 20.766 5.88231C20.4034 5.38021 19.9081 4.98907 19.3356 4.75277C18.7631 4.51646 18.136 4.44433 17.5248 4.54447C16.9136 4.64461 16.3424 4.91305 15.8752 5.3197C15.4081 5.72634 15.0634 6.2551 14.88 6.84667M4 16.5H24.6667C25.2859 16.4882 25.8962 16.6491 26.4291 16.9647C26.962 17.2803 27.3964 17.7382 27.6837 18.2869C27.9709 18.8356 28.0995 19.4535 28.0552 20.0713C28.0109 20.6891 27.7953 21.2823 27.4327 21.7844C27.0701 22.2865 26.5747 22.6776 26.0022 22.9139C25.4297 23.1502 24.8027 23.2223 24.1915 23.1222C23.5803 23.0221 23.0091 22.7536 22.5419 22.347C22.0747 21.9403 21.7301 21.4116 21.5467 20.82M5.33333 21.8333H12.6667C13.2859 21.8215 13.8962 21.9824 14.4291 22.298C14.962 22.6136 15.3964 23.0715 15.6837 23.6202C15.9709 24.169 16.0996 24.7869 16.0552 25.4046C16.0109 26.0224 15.7953 26.6156 15.4327 27.1177C15.0701 27.6198 14.5747 28.0109 14.0022 28.2472C13.4297 28.4835 12.8027 28.5557 12.1915 28.4555C11.5803 28.3554 11.0091 28.087 10.5419 27.6803C10.0747 27.2737 9.73011 26.7449 9.54667 26.1533" stroke="#212121" stroke-opacity="0.6" stroke-width="2.66667" stroke-linecap="round" stroke-linejoin="round"/>
</svg>
